<svg width="39" height="43" viewBox="0 0 39 43" fill="none" xmlns="http://www.w3.org/2000/svg">
<g filter="url(#filter0_d_219_65)">
<g filter="url(#filter1_d_219_65)">
<path d="M27.1257 28.6675C27.5382 29.4385 27.2387 30.5375 26.4822 30.9973C25.7257 31.4571 24.5842 31.0566 24.1716 30.2857C23.9031 29.7838 23.5235 28.0893 23.9064 27.0604C24.0595 26.6491 24.2487 26.3578 25.0736 26.7873C25.9051 27.3376 26.8571 28.1657 27.1257 28.6675Z" fill="#FFC000"/>
</g>
<g filter="url(#filter2_d_219_65)">
<path d="M17.1565 2.64774C17.191 1.50307 18.1092 0.635484 19.2074 0.709847C20.3055 0.784238 21.1678 1.77245 21.1334 2.9171C21.1109 3.66228 20.2119 5.79413 19.5881 6.93697C19.3024 7.4652 18.9942 7.58861 18.3737 6.50146C17.8211 5.27893 17.1341 3.3929 17.1565 2.64774Z" fill="#FFC000"/>
</g>
<g filter="url(#filter3_d_219_65)">
<path d="M31.2092 8.56638C32.2505 8.13636 33.3999 8.64229 33.7765 9.69641C34.1531 10.7505 33.6144 11.9536 32.5731 12.3837C31.8952 12.6636 29.6189 12.686 28.3413 12.5657C27.7518 12.5126 27.5166 12.275 28.2418 11.2574C29.1159 10.2485 30.5313 8.84637 31.2092 8.56638Z" fill="#FFC000"/>
</g>
<g filter="url(#filter4_d_219_65)">
<path d="M32.5932 23.3377C33.5297 23.9705 33.7696 25.223 33.1292 26.1354C32.4888 27.0477 31.2105 27.2744 30.274 26.6417C29.6644 26.2297 28.3601 24.328 27.7356 23.1855C27.4455 22.6597 27.505 22.3276 28.7384 22.3626C30.0489 22.5277 31.9836 22.9258 32.5932 23.3377Z" fill="#FFC000"/>
</g>
<path d="M18.8627 8.41591C20.4659 8.33325 21.2094 8.60743 22.6732 9.27875C23.6562 9.72956 24.1144 10.2734 24.9056 11.0196C25.8651 11.9245 26.3248 12.5879 26.8108 13.8247C27.0346 14.3942 27.1082 14.7354 27.2342 15.3352C27.5118 16.6562 27.6469 17.4525 27.4459 18.7877C27.315 19.6574 27.1413 20.1328 26.8108 20.9456C26.3711 22.0271 26.1188 22.685 25.329 23.535C24.6351 24.2818 24.0883 24.7518 23.2117 25.2613C22.3439 25.7656 21.8618 25.9189 20.8835 26.1243C19.9928 26.3114 19.1332 26.4112 18.2277 26.3258C16.6103 26.1735 15.9754 25.8059 14.5327 25.0454C13.5339 24.519 12.8228 23.957 12.0886 23.0888C11.4122 22.2891 11.3238 21.9238 10.9339 20.9456C10.609 20.1305 10.4287 19.4416 10.2978 18.572C10.0968 17.2367 10.1563 16.4215 10.5096 15.1195C10.8842 13.7388 11.3756 13.04 12.2041 11.8827C12.5847 11.3511 13.0811 10.7873 13.5704 10.3579C14.5378 9.5091 14.8406 9.5091 15.8023 9.07758C17.112 8.48991 17.7612 8.47271 18.8627 8.41591Z" fill="url(#paint0_radial_219_65)"/>
<g filter="url(#filter5_d_219_65)">
<path d="M7.03773 26.6831C6.03772 27.2051 4.84901 26.8046 4.38257 25.7884C3.91617 24.7723 4.3487 23.5254 5.34866 23.0034C5.99966 22.6636 8.26521 22.4365 9.54824 22.4414C10.14 22.4414 10.3949 22.6569 9.76057 23.7357C8.97719 24.8193 7.68868 26.3433 7.03773 26.6831Z" fill="#FFC000"/>
</g>
<g filter="url(#filter6_d_219_65)">
<path d="M13.7326 30.1751C13.3109 30.9408 12.2382 31.2659 11.4542 30.8567C10.6703 30.4475 10.3969 29.2489 10.8186 28.4831C11.0932 27.9846 12.3001 26.7568 13.3588 26.541C13.782 26.4548 14.1246 26.4635 14.2057 27.4042C14.1899 28.4145 14.0071 29.6766 13.7326 30.1751Z" fill="#FFC000"/>
</g>
<g filter="url(#filter7_d_219_65)">
<path d="M23.9539 5.04936C24.3117 4.25052 25.3541 3.83572 26.1688 4.17702C26.9834 4.51834 27.3536 5.68966 26.9958 6.4885C26.7628 7.00855 25.6602 8.33439 24.6228 8.63912C24.2081 8.76092 23.866 8.78125 23.7085 7.85076C23.6418 6.84256 23.721 5.5694 23.9539 5.04936Z" fill="#FFC000"/>
</g>
<g filter="url(#filter8_d_219_65)">
<path d="M14.082 5.04936C13.7242 4.25052 12.6818 3.83572 11.8671 4.17702C11.0525 4.51834 10.6823 5.68966 11.0401 6.4885C11.2731 7.00855 12.3757 8.33439 13.4131 8.63912C13.8278 8.76092 14.1699 8.78125 14.3274 7.85076C14.3941 6.84256 14.3149 5.5694 14.082 5.04936Z" fill="#FFC000"/>
</g>
<g filter="url(#filter9_d_219_65)">
<path d="M32.5614 15.5916C33.4225 15.564 34.2497 16.3322 34.3112 17.2278C34.3726 18.1234 33.507 18.9813 32.6459 19.0089C32.0854 19.0269 30.4304 18.608 29.7022 17.7956C29.4111 17.4708 29.2414 17.1673 29.9896 16.6105C30.8464 16.1023 32.0008 15.6097 32.5614 15.5916Z" fill="#FFC000"/>
</g>
<g filter="url(#filter10_d_219_65)">
<path d="M5.75282 15.5916C4.89171 15.564 4.06448 16.3322 4.00305 17.2278C3.94165 18.1234 4.8072 18.9813 5.66828 19.0089C6.22886 19.0269 7.88378 18.608 8.61201 17.7956C8.9031 17.4708 9.07279 17.1673 8.32463 16.6105C7.46783 16.1023 6.31337 15.6097 5.75282 15.5916Z" fill="#FFC000"/>
</g>
<g filter="url(#filter11_d_219_65)">
<path d="M5.31634 12.0005C4.36364 11.3935 4.09097 10.148 4.70724 9.21845C5.3235 8.28901 6.59538 8.02759 7.54808 8.63456C8.16828 9.02973 9.52202 10.8953 10.1763 12.0203C10.48 12.538 10.4293 12.8716 9.19537 12.8703C7.88093 12.741 5.93654 12.3956 5.31634 12.0005Z" fill="#FFC000"/>
</g>
<g filter="url(#filter12_d_219_65)">
<path d="M20.9305 32.4196C20.9347 33.5648 20.0464 34.4641 18.9464 34.4283C17.8464 34.3925 16.9512 33.4352 16.9469 32.29C16.9442 31.5445 17.7522 29.775 18.337 28.6109C18.6047 28.073 18.9271 27.5462 19.5839 28.6109C20.1775 29.8133 20.9277 31.6741 20.9305 32.4196Z" fill="#FFC000"/>
</g>
</g>
<defs>
<filter id="filter0_d_219_65" x="0" y="0.705444" width="38.3142" height="41.7239" filterUnits="userSpaceOnUse" color-interpolation-filters="sRGB">
<feFlood flood-opacity="0" result="BackgroundImageFix"/>
<feColorMatrix in="SourceAlpha" type="matrix" values="0 0 0 0 0 0 0 0 0 0 0 0 0 0 0 0 0 0 127 0" result="hardAlpha"/>
<feOffset dy="4"/>
<feGaussianBlur stdDeviation="2"/>
<feComposite in2="hardAlpha" operator="out"/>
<feColorMatrix type="matrix" values="0 0 0 0 1 0 0 0 0 0.752941 0 0 0 0 0 0 0 0 0.25 0"/>
<feBlend mode="normal" in2="BackgroundImageFix" result="effect1_dropShadow_219_65"/>
<feBlend mode="normal" in="SourceGraphic" in2="effect1_dropShadow_219_65" result="shape"/>
</filter>
<filter id="filter1_d_219_65" x="19.7441" y="26.5754" width="11.5676" height="12.6168" filterUnits="userSpaceOnUse" color-interpolation-filters="sRGB">
<feFlood flood-opacity="0" result="BackgroundImageFix"/>
<feColorMatrix in="SourceAlpha" type="matrix" values="0 0 0 0 0 0 0 0 0 0 0 0 0 0 0 0 0 0 127 0" result="hardAlpha"/>
<feOffset dy="4"/>
<feGaussianBlur stdDeviation="2"/>
<feComposite in2="hardAlpha" operator="out"/>
<feColorMatrix type="matrix" values="0 0 0 0 1 0 0 0 0 0.752941 0 0 0 0 0 0 0 0 0.25 0"/>
<feBlend mode="normal" in2="BackgroundImageFix" result="effect1_dropShadow_219_65"/>
<feBlend mode="normal" in="SourceGraphic" in2="effect1_dropShadow_219_65" result="shape"/>
</filter>
<filter id="filter2_d_219_65" x="13.156" y="0.705444" width="11.9783" height="14.6252" filterUnits="userSpaceOnUse" color-interpolation-filters="sRGB">
<feFlood flood-opacity="0" result="BackgroundImageFix"/>
<feColorMatrix in="SourceAlpha" type="matrix" values="0 0 0 0 0 0 0 0 0 0 0 0 0 0 0 0 0 0 127 0" result="hardAlpha"/>
<feOffset dy="4"/>
<feGaussianBlur stdDeviation="2"/>
<feComposite in2="hardAlpha" operator="out"/>
<feColorMatrix type="matrix" values="0 0 0 0 1 0 0 0 0 0.752941 0 0 0 0 0 0 0 0 0.25 0"/>
<feBlend mode="normal" in2="BackgroundImageFix" result="effect1_dropShadow_219_65"/>
<feBlend mode="normal" in="SourceGraphic" in2="effect1_dropShadow_219_65" result="shape"/>
</filter>
<filter id="filter3_d_219_65" x="23.7908" y="8.41309" width="14.106" height="12.2218" filterUnits="userSpaceOnUse" color-interpolation-filters="sRGB">
<feFlood flood-opacity="0" result="BackgroundImageFix"/>
<feColorMatrix in="SourceAlpha" type="matrix" values="0 0 0 0 0 0 0 0 0 0 0 0 0 0 0 0 0 0 127 0" result="hardAlpha"/>
<feOffset dy="4"/>
<feGaussianBlur stdDeviation="2"/>
<feComposite in2="hardAlpha" operator="out"/>
<feColorMatrix type="matrix" values="0 0 0 0 1 0 0 0 0 0.752941 0 0 0 0 0 0 0 0 0.25 0"/>
<feBlend mode="normal" in2="BackgroundImageFix" result="effect1_dropShadow_219_65"/>
<feBlend mode="normal" in="SourceGraphic" in2="effect1_dropShadow_219_65" result="shape"/>
</filter>
<filter id="filter4_d_219_65" x="23.5911" y="22.3601" width="13.897" height="12.6401" filterUnits="userSpaceOnUse" color-interpolation-filters="sRGB">
<feFlood flood-opacity="0" result="BackgroundImageFix"/>
<feColorMatrix in="SourceAlpha" type="matrix" values="0 0 0 0 0 0 0 0 0 0 0 0 0 0 0 0 0 0 127 0" result="hardAlpha"/>
<feOffset dy="4"/>
<feGaussianBlur stdDeviation="2"/>
<feComposite in2="hardAlpha" operator="out"/>
<feColorMatrix type="matrix" values="0 0 0 0 1 0 0 0 0 0.752941 0 0 0 0 0 0 0 0 0.25 0"/>
<feBlend mode="normal" in2="BackgroundImageFix" result="effect1_dropShadow_219_65"/>
<feBlend mode="normal" in="SourceGraphic" in2="effect1_dropShadow_219_65" result="shape"/>
</filter>
<filter id="filter5_d_219_65" x="0.194824" y="22.4413" width="13.9355" height="12.4708" filterUnits="userSpaceOnUse" color-interpolation-filters="sRGB">
<feFlood flood-opacity="0" result="BackgroundImageFix"/>
<feColorMatrix in="SourceAlpha" type="matrix" values="0 0 0 0 0 0 0 0 0 0 0 0 0 0 0 0 0 0 127 0" result="hardAlpha"/>
<feOffset dy="4"/>
<feGaussianBlur stdDeviation="2"/>
<feComposite in2="hardAlpha" operator="out"/>
<feColorMatrix type="matrix" values="0 0 0 0 1 0 0 0 0 0.752941 0 0 0 0 0 0 0 0 0.25 0"/>
<feBlend mode="normal" in2="BackgroundImageFix" result="effect1_dropShadow_219_65"/>
<feBlend mode="normal" in="SourceGraphic" in2="effect1_dropShadow_219_65" result="shape"/>
</filter>
<filter id="filter6_d_219_65" x="6.62134" y="26.5068" width="11.5842" height="12.5278" filterUnits="userSpaceOnUse" color-interpolation-filters="sRGB">
<feFlood flood-opacity="0" result="BackgroundImageFix"/>
<feColorMatrix in="SourceAlpha" type="matrix" values="0 0 0 0 0 0 0 0 0 0 0 0 0 0 0 0 0 0 127 0" result="hardAlpha"/>
<feOffset dy="4"/>
<feGaussianBlur stdDeviation="2"/>
<feComposite in2="hardAlpha" operator="out"/>
<feColorMatrix type="matrix" values="0 0 0 0 1 0 0 0 0 0.752941 0 0 0 0 0 0 0 0 0.25 0"/>
<feBlend mode="normal" in2="BackgroundImageFix" result="effect1_dropShadow_219_65"/>
<feBlend mode="normal" in="SourceGraphic" in2="effect1_dropShadow_219_65" result="shape"/>
</filter>
<filter id="filter7_d_219_65" x="19.6858" y="4.05676" width="11.4465" height="12.6422" filterUnits="userSpaceOnUse" color-interpolation-filters="sRGB">
<feFlood flood-opacity="0" result="BackgroundImageFix"/>
<feColorMatrix in="SourceAlpha" type="matrix" values="0 0 0 0 0 0 0 0 0 0 0 0 0 0 0 0 0 0 127 0" result="hardAlpha"/>
<feOffset dy="4"/>
<feGaussianBlur stdDeviation="2"/>
<feComposite in2="hardAlpha" operator="out"/>
<feColorMatrix type="matrix" values="0 0 0 0 1 0 0 0 0 0.752941 0 0 0 0 0 0 0 0 0.25 0"/>
<feBlend mode="normal" in2="BackgroundImageFix" result="effect1_dropShadow_219_65"/>
<feBlend mode="normal" in="SourceGraphic" in2="effect1_dropShadow_219_65" result="shape"/>
</filter>
<filter id="filter8_d_219_65" x="6.90356" y="4.05676" width="11.4465" height="12.6422" filterUnits="userSpaceOnUse" color-interpolation-filters="sRGB">
<feFlood flood-opacity="0" result="BackgroundImageFix"/>
<feColorMatrix in="SourceAlpha" type="matrix" values="0 0 0 0 0 0 0 0 0 0 0 0 0 0 0 0 0 0 127 0" result="hardAlpha"/>
<feOffset dy="4"/>
<feGaussianBlur stdDeviation="2"/>
<feComposite in2="hardAlpha" operator="out"/>
<feColorMatrix type="matrix" values="0 0 0 0 1 0 0 0 0 0.752941 0 0 0 0 0 0 0 0 0.25 0"/>
<feBlend mode="normal" in2="BackgroundImageFix" result="effect1_dropShadow_219_65"/>
<feBlend mode="normal" in="SourceGraphic" in2="effect1_dropShadow_219_65" result="shape"/>
</filter>
<filter id="filter9_d_219_65" x="25.4548" y="15.5909" width="12.8594" height="11.4186" filterUnits="userSpaceOnUse" color-interpolation-filters="sRGB">
<feFlood flood-opacity="0" result="BackgroundImageFix"/>
<feColorMatrix in="SourceAlpha" type="matrix" values="0 0 0 0 0 0 0 0 0 0 0 0 0 0 0 0 0 0 127 0" result="hardAlpha"/>
<feOffset dy="4"/>
<feGaussianBlur stdDeviation="2"/>
<feComposite in2="hardAlpha" operator="out"/>
<feColorMatrix type="matrix" values="0 0 0 0 1 0 0 0 0 0.752941 0 0 0 0 0 0 0 0 0.25 0"/>
<feBlend mode="normal" in2="BackgroundImageFix" result="effect1_dropShadow_219_65"/>
<feBlend mode="normal" in="SourceGraphic" in2="effect1_dropShadow_219_65" result="shape"/>
</filter>
<filter id="filter10_d_219_65" x="0" y="15.5909" width="12.8594" height="11.4186" filterUnits="userSpaceOnUse" color-interpolation-filters="sRGB">
<feFlood flood-opacity="0" result="BackgroundImageFix"/>
<feColorMatrix in="SourceAlpha" type="matrix" values="0 0 0 0 0 0 0 0 0 0 0 0 0 0 0 0 0 0 127 0" result="hardAlpha"/>
<feOffset dy="4"/>
<feGaussianBlur stdDeviation="2"/>
<feComposite in2="hardAlpha" operator="out"/>
<feColorMatrix type="matrix" values="0 0 0 0 1 0 0 0 0 0.752941 0 0 0 0 0 0 0 0 0.25 0"/>
<feBlend mode="normal" in2="BackgroundImageFix" result="effect1_dropShadow_219_65"/>
<feBlend mode="normal" in="SourceGraphic" in2="effect1_dropShadow_219_65" result="shape"/>
</filter>
<filter id="filter11_d_219_65" x="0.377441" y="8.30725" width="13.9543" height="12.563" filterUnits="userSpaceOnUse" color-interpolation-filters="sRGB">
<feFlood flood-opacity="0" result="BackgroundImageFix"/>
<feColorMatrix in="SourceAlpha" type="matrix" values="0 0 0 0 0 0 0 0 0 0 0 0 0 0 0 0 0 0 127 0" result="hardAlpha"/>
<feOffset dy="4"/>
<feGaussianBlur stdDeviation="2"/>
<feComposite in2="hardAlpha" operator="out"/>
<feColorMatrix type="matrix" values="0 0 0 0 1 0 0 0 0 0.752941 0 0 0 0 0 0 0 0 0.25 0"/>
<feBlend mode="normal" in2="BackgroundImageFix" result="effect1_dropShadow_219_65"/>
<feBlend mode="normal" in="SourceGraphic" in2="effect1_dropShadow_219_65" result="shape"/>
</filter>
<filter id="filter12_d_219_65" x="12.947" y="27.9945" width="11.9834" height="14.4348" filterUnits="userSpaceOnUse" color-interpolation-filters="sRGB">
<feFlood flood-opacity="0" result="BackgroundImageFix"/>
<feColorMatrix in="SourceAlpha" type="matrix" values="0 0 0 0 0 0 0 0 0 0 0 0 0 0 0 0 0 0 127 0" result="hardAlpha"/>
<feOffset dy="4"/>
<feGaussianBlur stdDeviation="2"/>
<feComposite in2="hardAlpha" operator="out"/>
<feColorMatrix type="matrix" values="0 0 0 0 1 0 0 0 0 0.752941 0 0 0 0 0 0 0 0 0.25 0"/>
<feBlend mode="normal" in2="BackgroundImageFix" result="effect1_dropShadow_219_65"/>
<feBlend mode="normal" in="SourceGraphic" in2="effect1_dropShadow_219_65" result="shape"/>
</filter>
<radialGradient id="paint0_radial_219_65" cx="0" cy="0" r="1" gradientTransform="matrix(-11.2197 0.431566 -0.422649 -11.4165 21.403 19.6363)" gradientUnits="userSpaceOnUse">
<stop offset="0.629182" stop-color="#FFC000"/>
<stop offset="1" stop-color="#FF921D"/>
</radialGradient>
</defs>
</svg>
