<svg width="313" height="372" viewBox="0 0 313 372" fill="none" xmlns="http://www.w3.org/2000/svg">
<g filter="url(#filter0_d_397_9)">
<path fill-rule="evenodd" clip-rule="evenodd" d="M54.6201 149.759C68.2173 149.759 79.2401 160.782 79.2401 174.379C79.2401 187.977 68.2173 198.999 54.6201 198.999C41.0229 198.999 30 187.977 30 174.379C30 160.782 41.0229 149.759 54.6201 149.759Z" fill="url(#paint0_radial_397_9)" shape-rendering="crispEdges"/>
</g>
<path d="M54.8935 152.951C66.8793 152.951 76.5957 162.667 76.5957 174.653C76.5957 186.639 66.8793 196.355 54.8935 196.355C42.9078 196.355 33.1914 186.639 33.1914 174.653C33.1914 162.667 42.9078 152.951 54.8935 152.951Z" fill="url(#paint1_radial_397_9)"/>
<path d="M54.772 157.206C64.3403 157.206 72.0972 164.963 72.0972 174.531C72.0972 184.1 64.3403 191.857 54.772 191.857C45.2037 191.857 37.4468 184.1 37.4468 174.531C37.4468 164.963 45.2037 157.206 54.772 157.206Z" fill="url(#paint2_linear_397_9)"/>
<path d="M59.1014 167.454C61.8532 168.997 63.5575 171.906 63.5568 175.061C63.5568 179.879 59.6514 183.784 54.8339 183.784H54.8329C50.0157 183.785 46.1104 179.879 46.1104 175.062V175.061C46.1096 171.906 47.8132 168.997 50.5654 167.454" stroke="#74808C" stroke-width="3" stroke-miterlimit="10"/>
<path d="M54.8335 175.712V164.577" stroke="#74808C" stroke-width="2" stroke-miterlimit="10"/>
<path d="M37.3848 174.766C37.3848 165.2 45.1398 157.445 54.7062 157.445" stroke="#9BABB5" stroke-width="0.1" stroke-miterlimit="10"/>
<path fill-rule="evenodd" clip-rule="evenodd" d="M54.706 192.088C52.4381 192.222 50.1178 191.866 47.9713 191.025C45.8192 190.196 43.8471 188.897 42.2056 187.267C40.5746 185.626 39.2749 183.653 38.4467 181.501C37.6049 179.355 37.2488 177.034 37.3846 174.766C37.5281 177.034 38.0635 179.246 38.9617 181.288C39.8663 183.326 41.136 185.194 42.7103 186.762C44.2774 188.337 46.146 189.607 48.1838 190.512C50.226 191.41 52.4381 191.945 54.706 192.088Z" fill="#17867E"/>
<path d="M72.028 174.766C72.028 184.333 64.273 192.088 54.7065 192.088" stroke="#9BABB5" stroke-width="0.1" stroke-miterlimit="10"/>
<path fill-rule="evenodd" clip-rule="evenodd" d="M54.7065 157.445C56.9744 157.31 59.2948 157.667 61.4412 158.508C63.5933 159.336 65.5655 160.636 67.2069 162.266C68.8376 163.907 70.1373 165.879 70.9658 168.031C71.8076 170.178 72.1637 172.498 72.028 174.766C71.8844 172.498 71.349 170.287 70.4512 168.245C69.5462 166.207 68.2762 164.338 66.7023 162.771C65.1348 161.196 63.2665 159.926 61.2287 159.021C59.1865 158.123 56.9744 157.588 54.7065 157.445Z" fill="#17867E"/>
<g filter="url(#filter1_d_397_9)">
<path d="M106.08 233.434C106.241 233.541 106.337 233.72 106.337 233.913V238.953C106.337 239.61 106.272 240.266 106.143 240.911L105.141 245.92L104.848 247.041C104.566 248.123 104.161 249.17 103.642 250.161C103.287 250.84 102.879 251.49 102.422 252.105L100.357 254.887L97.6975 257.657C97.5578 257.803 97.4019 257.932 97.2329 258.042C96.6577 258.416 95.9595 258.553 95.2857 258.422L89.5938 257.32C88.7222 257.151 87.8652 256.914 87.0307 256.611L84.3448 255.637C81.9597 254.771 79.6393 253.737 77.4013 252.541L74.4065 250.942L69.1446 247.355L64.6002 243.529L59.697 238.387L57.8103 236.113C56.367 234.373 55.2158 232.41 54.4015 230.301L53.8582 228.893C53.291 227.424 53 225.862 53 224.287V222.445C53 220.693 53.6047 218.993 54.7121 217.635C55.3192 216.89 56.0618 216.266 56.9008 215.798L57.6554 215.376C59.0041 214.623 60.4842 214.133 62.0163 213.935L63.098 213.795C65.1208 213.532 67.1737 213.62 69.1669 214.053L72.7313 214.828C75.6718 215.467 78.5283 216.445 81.2431 217.743L85.4087 219.735L105.32 231.808C105.633 231.997 105.824 232.337 105.824 232.703V232.956C105.824 233.148 105.92 233.328 106.08 233.434Z" fill="url(#paint3_linear_397_9)" style="mix-blend-mode:lighten"/>
<g filter="url(#filter2_d_397_9)">
<path d="M83.6397 219.51C83.6082 219.304 83.7674 219.116 83.9763 219.116C84.0921 219.116 84.1998 219.176 84.2617 219.274L84.2803 219.303C84.3158 219.359 84.3368 219.423 84.3414 219.49L84.4548 221.135V221.89C84.4548 223.088 84.3142 224.282 84.036 225.447C83.8342 226.293 83.5607 227.12 83.2186 227.919L83.0232 228.375C82.5343 229.517 81.9458 230.613 81.2645 231.652L81.1104 231.887C79.8166 233.859 78.2429 235.632 76.4386 237.151L75.4285 238.001L72.1326 240.149C70.8877 240.961 69.5224 241.57 68.0872 241.956L67.187 242.217C66.1852 242.507 65.1559 242.693 64.1157 242.77H63.9674C63.9081 242.77 63.851 242.747 63.8082 242.706L63.5144 242.425C63.4707 242.383 63.5003 242.309 63.5609 242.309C63.565 242.309 63.5692 242.309 63.5733 242.308L65.4395 241.956L67.6058 241.374C69.3661 240.755 71.0564 239.953 72.6489 238.981L72.9811 238.778C74.209 238.029 75.3655 237.168 76.4361 236.208C77.6068 235.157 78.6692 233.991 79.6072 232.729L80.312 231.78C81.1458 230.657 81.8549 229.448 82.427 228.172L82.5649 227.864C82.9415 227.024 83.2425 226.152 83.4644 225.259C83.7228 224.218 83.8851 223.153 83.8777 222.081C83.8757 221.787 83.8687 221.5 83.853 221.268C83.8157 220.715 83.7089 219.963 83.6397 219.51Z" fill="#8498A5"/>
</g>
<path d="M120.097 239.511C120.27 239.24 120.167 238.879 119.877 238.741L113.039 235.362L106.064 232.243C105.939 232.184 105.795 232.277 105.798 232.415C105.817 233.233 105.861 235.537 105.79 237.182C105.671 239.958 104.559 244.33 104.559 244.33C104.559 244.33 104.196 246.68 103.602 248.099C102.877 249.83 102.351 250.698 101.277 252.257C100.482 253.413 100.022 254.058 99.089 255.117C97.8771 256.493 95.67 258.366 95.67 258.366C95.5626 258.468 95.6245 258.649 95.7719 258.664L99.2258 259.016L103.192 259.275L107.842 259.016L112.287 258.571C112.767 258.523 113.208 258.282 113.507 257.903C113.736 257.612 113.869 257.257 113.887 256.888L114.076 253.018C114.114 252.252 114.215 251.491 114.378 250.742L114.434 250.484C114.778 248.902 115.346 247.377 116.121 245.954L117.005 244.33L120.097 239.511Z" fill="url(#paint4_radial_397_9)"/>
<g filter="url(#filter3_dd_397_9)">
<path d="M185.248 66.5391L179.777 67.8387L178.245 68.4051C175.993 69.2372 173.856 70.3503 171.883 71.7181L170.356 72.7775C169.982 73.0368 169.632 73.3289 169.31 73.6503L167.827 75.1295C167.335 75.6205 167.059 76.2872 167.059 76.9824C167.059 77.6997 167.353 78.3856 167.873 78.8798L168.24 79.2289C168.535 79.5091 168.927 79.6654 169.333 79.6654C169.634 79.6654 169.929 79.58 170.183 79.419L172.256 78.1058L173.051 77.4292C174.25 76.4099 175.547 75.5122 176.923 74.7493C178.817 73.6995 180.846 72.9135 182.952 72.413L185.248 71.8676L186.558 71.733C189.045 71.4775 191.556 71.5792 194.015 72.035C195.28 72.2697 196.526 72.5971 197.743 73.0148L197.849 73.051C199.836 73.7328 201.738 74.6381 203.521 75.7495L205.215 76.8062L206.57 77.7909C207.213 78.2579 207.779 78.8221 208.248 79.4632L209.17 80.7231C209.533 81.2181 210.043 81.5848 210.628 81.77L211.017 81.8932C211.505 82.0477 212.034 82.0002 212.487 81.7613C212.828 81.5813 213.106 81.3023 213.286 80.9609L213.413 80.7202C213.767 80.0465 213.831 79.2571 213.589 78.5352L213.309 77.6979C213.112 77.1089 212.803 76.5632 212.401 76.0904L211.607 75.1587C210.995 74.4404 210.295 73.8025 209.523 73.2602L207.54 71.8676L207.369 71.7418C205.481 70.3554 203.475 69.1375 201.373 68.1022L200.839 67.8387L199.686 67.4474C197.906 66.8435 196.069 66.425 194.203 66.1987C191.8 65.907 189.367 65.9368 186.971 66.2871L185.248 66.5391Z" fill="url(#paint5_radial_397_9)"/>
</g>
<g filter="url(#filter4_dd_397_9)">
<path d="M184.387 95.0803C185.055 95.0803 185.708 94.8796 186.261 94.5042L186.984 94.014C187.831 93.4385 188.833 93.1308 189.857 93.1308C190.967 93.1308 192.047 93.4916 192.933 94.1587L194.229 95.1338C194.638 95.4409 195.109 95.6538 195.609 95.7571L196.442 95.9291C197.373 96.1216 198.325 95.7079 198.82 94.8956C199.24 94.2061 199.259 93.3444 198.869 92.6373L198.389 91.7666C198.129 91.2948 197.775 90.8809 197.35 90.5501L196.41 89.8189C195.469 89.0872 194.401 88.5343 193.261 88.1875L192.932 88.0873C192.027 87.8122 191.086 87.6724 190.141 87.6724C188.915 87.6724 187.7 87.9074 186.563 88.3647L185.735 88.6974C185.068 88.9657 184.443 89.3287 183.879 89.7753L182.984 90.4836C182.515 90.8553 182.154 91.3465 181.94 91.9057L181.867 92.0964C181.77 92.3507 181.72 92.6206 181.72 92.8929V92.9201C181.72 93.4727 181.932 94.0043 182.312 94.4055C182.72 94.8363 183.287 95.0803 183.88 95.0803H184.387Z" fill="url(#paint6_radial_397_9)"/>
</g>
<g filter="url(#filter5_dd_397_9)">
<path d="M175.601 87.3805C174.798 87.028 174.235 86.2831 174.116 85.4137L174.094 85.2524C173.97 84.3556 174.286 83.4543 174.943 82.8308L175.666 82.1429C175.945 81.8783 176.254 81.6484 176.588 81.4581L179.505 79.7951L181.933 78.7531C183.137 78.2361 184.392 77.8438 185.676 77.5822C186.938 77.3252 188.222 77.1958 189.51 77.1958H190.993L191.422 77.2347C193.045 77.3815 194.645 77.7174 196.19 78.2355L199.472 79.7951L201.472 81.0344C202.233 81.5062 202.935 82.0667 203.564 82.7041L204.126 83.2738C204.486 83.6388 204.794 84.0519 205.041 84.5014L205.81 85.9029C206.126 86.4789 206.167 87.1666 205.92 87.7757L205.865 87.9115C205.711 88.2937 205.428 88.6102 205.066 88.807C204.805 88.9484 204.513 89.0225 204.217 89.0225H203.25C202.839 89.0225 202.44 88.8881 202.114 88.6398C201.994 88.5487 201.886 88.4435 201.791 88.3265L201.181 87.5729C200.772 87.0676 200.314 86.6038 199.814 86.1882L199.472 85.9034L196.909 84.2797C196.43 83.9763 195.93 83.7078 195.412 83.4763C194.386 83.0173 193.299 82.7075 192.185 82.5562L190.993 82.3944H188.65C187.933 82.3944 187.218 82.4477 186.509 82.554C185.49 82.7071 184.489 82.9691 183.525 83.3355L183.386 83.3881C182.623 83.6782 181.884 84.0271 181.174 84.4315L181.041 84.5073C180.019 85.09 179.058 85.7727 178.171 86.5454L177.864 86.8131L177.106 87.3532C176.887 87.5091 176.625 87.5929 176.356 87.5929C176.178 87.5929 176.001 87.5559 175.838 87.4842L175.601 87.3805Z" fill="url(#paint7_radial_397_9)"/>
</g>
<path d="M189.101 97.6542C188.344 97.5325 187.572 97.5336 186.815 97.6574L185.391 97.8903C183.9 98.3435 182.683 99.4289 182.063 100.859L181.605 101.914C181.334 102.541 181.146 103.2 181.046 103.876L180.744 105.92C180.738 105.958 180.735 105.997 180.735 106.035C180.735 106.473 181.09 106.828 181.528 106.828H183.962L187.189 107.253L190.57 107.82L193.295 108.299C193.595 108.352 193.895 108.207 194.04 107.939C194.082 107.861 194.11 107.775 194.12 107.686L194.411 105.268V104.098C194.411 102.824 194.056 101.575 193.385 100.492L193.219 100.223C192.79 99.531 192.212 98.9437 191.527 98.5042C190.896 98.0993 190.188 97.8289 189.447 97.7099L189.101 97.6542Z" fill="url(#paint8_linear_397_9)"/>
<path d="M185.758 106.568C197.076 107.593 203.503 110.652 213.494 115.731C223.405 120.771 228.567 124.884 235.572 133.155C240.64 139.139 242.903 143.024 246.059 150.063C249.048 156.729 250.126 160.752 251.441 167.874C254.671 185.376 255.465 197.204 247.163 213.177C245.813 215.775 245.035 217.241 243.299 219.63C241.791 221.708 240.9 222.87 239.022 224.664C236.413 227.156 234.78 230.109 231.573 231.888C227.897 233.928 223.91 235.953 219.812 237.087C213.877 238.729 210.127 238.581 203.947 238.906C191.972 239.537 186.634 238.362 174.718 237.087C163.231 235.857 157.035 234.131 145.724 231.888C137.017 230.162 133.119 230.205 124.763 227.34C121.812 226.328 116.9 224.115 114.095 222.791C111.158 221.404 108.588 219.264 106.026 217.332C103.415 215.363 102.598 214.363 100.556 211.874C97.882 208.616 97.6632 206.334 96.0428 202.517C94.9038 199.833 95.105 198.244 94.8121 195.369C94.4017 191.34 94.5104 189.112 94.5472 185.169C94.5803 181.628 94.8559 179.643 95.3751 176.135C95.7202 173.804 95.9708 172.503 96.4791 170.198C97.2658 166.63 97.8008 164.64 98.9629 161.163C101.79 152.702 103.739 147.863 109.036 140.512C113.769 133.945 116.539 130.59 122.697 125.153C127.313 121.078 130.409 118.237 135.741 115.015C142.736 110.788 147.469 109.183 155.676 107.858C161.677 106.889 165.318 106.568 171.407 106.568C177.012 106.568 180.18 106.063 185.758 106.568Z" fill="url(#paint9_radial_397_9)" style="mix-blend-mode:lighten"/>
<path d="M96.6344 171.154C96.7766 170.543 96.0235 170.135 95.5894 170.587C94.7029 171.364 93.9139 172.245 93.2398 173.212L93.1406 173.354L91.2914 176.18C90.064 178.501 89.1758 181.011 88.6637 183.585L88.5258 184.945C88.4085 186.101 88.4058 187.266 88.5177 188.423C88.6054 189.328 88.7629 190.226 88.9889 191.107L89.4103 192.749L90.4783 195.715L91.3687 197.444C91.7934 198.268 92.2877 199.055 92.8461 199.796L93.2822 200.374C93.6873 200.911 94.1482 201.403 94.6572 201.843L95.3504 202.442C95.3807 202.468 95.4135 202.491 95.4484 202.511L95.947 202.788C96.2921 202.98 96.6797 202.614 96.508 202.259C96.496 202.234 96.4866 202.208 96.4799 202.181L95.5394 198.421L95.0288 196.127L94.6318 192.49L94.6524 186.832L94.6524 183.453L95.1222 179.691L95.5894 176.863L96.0576 173.63L96.6344 171.154Z" fill="url(#paint10_linear_397_9)"/>
<path d="M251.999 168.829C252.527 168.484 253.143 168.301 253.774 168.301C254.478 168.301 255.164 168.53 255.726 168.954L257.235 170.092C258.282 170.881 259.142 171.892 259.752 173.052L260.445 174.369C261.274 175.944 261.826 177.649 262.077 179.41L262.473 182.186C262.685 183.671 262.791 185.169 262.791 186.67V187.501C262.791 191.32 262.288 195.122 261.294 198.809L260.45 201.94C260.097 203.251 259.616 204.524 259.014 205.74L258.847 206.077C257.397 209.004 255.228 211.513 252.541 213.37L250.98 214.449C250.741 214.614 250.482 214.75 250.21 214.854C247.633 215.833 244.952 213.684 245.348 210.956L245.559 209.499L246.106 203.911L246.927 196.243L248.021 186.496L248.872 176.672C248.943 175.859 249.092 175.053 249.317 174.268L250.219 171.126C250.477 170.226 251.051 169.448 251.835 168.936L251.999 168.829Z" fill="url(#paint11_linear_397_9)"/>
<g filter="url(#filter6_d_397_9)">
<path d="M172.802 129.441C173.241 129.447 182.75 131.193 188.987 133.094C195.225 134.994 199.484 136.679 205.137 140.031C210.79 143.383 214.03 145.897 218.338 150.304C222.646 154.711 225.491 158.591 227.747 162.845C230.002 167.099 230.997 169.672 232.1 174.319C233.203 178.965 233.472 185.734 233.083 190.328C232.695 194.922 231.808 198.685 230.836 201.935C229.865 205.185 229.418 207.091 227.747 210.074C226.076 213.056 220.096 219.448 217.355 221.013C214.614 222.579 211.551 223.507 209.771 223.949C207.992 224.39 206.959 224.509 205.137 224.749C203.315 224.989 195.712 225.08 189.69 224.749C183.667 224.418 180.185 223.726 174.102 223.015C168.018 222.303 164.129 222.07 157.811 221.013C151.494 219.957 147.169 218.745 141.521 217.545C135.873 216.344 132.554 216.195 127.057 214.476C121.559 212.757 112.843 208.868 111.047 207.405C109.251 205.942 108.294 205.038 106.834 203.269C105.375 201.5 102.805 196.958 101.919 194.331C101.034 191.703 100.818 190.137 100.515 187.393C100.211 184.649 100.301 182.102 100.515 178.721C100.729 175.341 100.862 172.447 101.919 168.582C102.976 164.716 104.732 161.495 106.834 157.508C108.936 153.521 109.904 151.09 112.873 147.636C115.841 144.182 118.099 142.709 121.861 140.031C125.622 137.354 129.931 134.753 133.938 133.094C137.945 131.434 140.715 130.768 144.611 129.892C148.506 129.016 154.94 128.803 158.935 128.557C162.929 128.312 172.364 129.439 172.802 129.441C173.241 129.444 172.364 129.436 172.802 129.441Z" fill="#182941"/>
</g>
<g filter="url(#filter7_dd_397_9)">
<path d="M130.32 156.313C134.08 153.465 139.396 153.972 142.55 157.479C143.113 158.106 143.586 158.807 143.956 159.564L144.195 160.054C144.845 161.383 145.262 162.814 145.429 164.283L145.521 165.087C145.656 166.273 145.67 167.47 145.563 168.66L145.443 170.009C145.266 171.979 144.802 173.911 144.064 175.746C143.621 176.845 143.083 177.904 142.455 178.909L141.629 180.23C141.08 181.11 140.403 181.903 139.621 182.584L139.414 182.764C138.172 183.847 136.668 184.586 135.052 184.91L134.601 185C133.113 185.298 131.57 185.161 130.157 184.605C128.973 184.139 127.919 183.395 127.084 182.435L126.741 182.04C126.088 181.289 125.551 180.445 125.146 179.536L124.968 179.136C124.493 178.069 124.164 176.943 123.991 175.788L123.806 174.562C123.648 173.508 123.568 172.444 123.568 171.379C123.568 169.337 123.86 167.306 124.436 165.347L124.757 164.252C125.058 163.228 125.466 162.239 125.974 161.301L126.46 160.405C127.168 159.099 128.147 157.959 129.331 157.063L130.32 156.313Z" fill="url(#paint12_radial_397_9)"/>
</g>
<g filter="url(#filter8_dd_397_9)">
<path d="M149.554 193.6C149.554 193.068 150.015 192.654 150.544 192.712L150.849 192.746L173.019 196.018C173.654 196.175 174.04 196.819 173.88 197.453L173.544 198.779C173.482 199.024 173.384 199.258 173.253 199.474L172.696 200.392C172.054 201.45 171.214 202.376 170.224 203.118L169.82 203.421C168.325 204.542 166.595 205.307 164.76 205.66L163.477 205.907C162.738 206.049 161.987 206.12 161.235 206.12H160.842C159.943 206.12 159.05 205.989 158.189 205.73C156.864 205.331 155.646 204.639 154.625 203.705L154.017 203.148C152.874 202.103 151.931 200.859 151.232 199.478L150.629 198.285C150.297 197.63 150.039 196.939 149.858 196.227C149.656 195.427 149.554 194.605 149.554 193.78V193.6Z" fill="url(#paint13_radial_397_9)"/>
</g>
<g filter="url(#filter9_dd_397_9)">
<path d="M189.949 164.631C193.709 161.783 199.024 162.29 202.178 165.797C202.741 166.424 203.215 167.125 203.584 167.882L203.824 168.372C204.473 169.701 204.891 171.131 205.058 172.601L205.149 173.404C205.284 174.591 205.298 175.788 205.192 176.978L205.071 178.327C204.895 180.296 204.43 182.229 203.692 184.064C203.25 185.163 202.711 186.221 202.083 187.226L201.257 188.548C200.708 189.428 200.031 190.221 199.249 190.902L199.043 191.082C197.8 192.165 196.296 192.904 194.68 193.227L194.229 193.318C192.741 193.615 191.198 193.478 189.786 192.923C188.602 192.457 187.548 191.713 186.713 190.753L186.369 190.358C185.717 189.607 185.179 188.763 184.775 187.854L184.596 187.454C184.121 186.387 183.793 185.261 183.619 184.106L183.435 182.88C183.276 181.826 183.197 180.762 183.197 179.697C183.197 177.655 183.489 175.624 184.064 173.665L184.386 172.57C184.686 171.546 185.094 170.557 185.603 169.619L186.089 168.723C186.797 167.417 187.775 166.277 188.959 165.38L189.949 164.631Z" fill="url(#paint14_radial_397_9)"/>
</g>
<path d="M202.04 234.99C206.936 235.548 211.238 238.492 213.532 242.852C214.094 243.92 214.524 245.052 214.813 246.224L216.198 251.851C217.958 258.993 217.655 266.488 215.325 273.465C214.695 275.353 213.92 277.189 213.009 278.959L211.134 282.599C209.014 286.712 206.588 290.66 203.876 294.409L201.933 297.095L198.844 300.838C197.259 302.759 195.527 304.554 193.665 306.208L193.109 306.703C191.155 308.438 189.039 309.981 186.789 311.31C182.338 313.939 177.426 315.695 172.317 316.484L171.24 316.65C166.477 317.385 161.627 317.358 156.873 316.571L155.291 316.309C151.222 315.635 147.299 314.27 143.69 312.273C140.148 310.313 136.96 307.772 134.259 304.756L131.849 302.065C128.891 298.763 126.326 295.13 124.203 291.239L121.654 286.568L121.331 285.893C118.82 280.644 116.954 275.11 115.773 269.413L115.004 264.75C114.788 263.442 114.679 262.119 114.679 260.793C114.679 258.153 115.11 255.53 115.953 253.029L118.098 246.669L119.505 243.473C120.658 240.852 122.183 238.411 124.031 236.224L125.243 234.792C126.669 233.106 128.376 231.679 130.29 230.576C133.83 228.536 137.931 227.684 141.991 228.147L202.04 234.99Z" fill="url(#paint15_radial_397_9)" style="mix-blend-mode:lighten"/>
<path d="M214.241 238.611L212.688 238.745C211.725 238.828 210.786 239.083 209.914 239.498C209.336 239.772 208.793 240.114 208.297 240.516L207.491 241.168C206.077 242.313 204.887 243.709 203.982 245.287C203.258 246.548 202.725 247.909 202.4 249.326L201.724 252.27C201.408 253.646 201.201 255.044 201.105 256.453L201.091 256.667C201.014 257.798 201.018 258.933 201.103 260.063C201.2 261.355 201.403 262.637 201.708 263.896L202.358 266.571C202.71 268.022 203.3 269.405 204.102 270.665L204.54 271.353C205.52 272.892 206.884 274.149 208.497 275.001C210.026 275.77 211.714 276.171 213.425 276.171H214.241L216.752 275.963C217.135 275.932 217.46 275.669 217.57 275.301C217.629 275.106 217.622 274.898 217.552 274.707L216.167 270.962C215.996 270.499 215.555 270.192 215.062 270.192C213.755 270.192 212.509 269.642 211.628 268.677L211.599 268.644C211.356 268.378 211.143 268.084 210.967 267.769L209.044 264.344C208.141 262.112 207.677 259.727 207.677 257.32V256.887C207.677 255.194 207.89 253.507 208.311 251.866L208.636 250.601C208.907 249.545 209.33 248.534 209.892 247.599L210.13 247.203C210.856 245.996 211.847 244.971 213.029 244.206L213.208 244.089C213.893 243.646 214.642 243.311 215.43 243.097C215.913 242.966 216.407 242.881 216.906 242.844L221.353 242.51C221.825 242.51 222.109 241.988 221.852 241.592L221.353 240.82C220.638 239.971 219.701 239.335 218.647 238.985L218.521 238.943C217.86 238.723 217.169 238.611 216.473 238.611H214.241Z" fill="url(#paint16_radial_397_9)"/>
<path d="M219.88 243.115C220 242.946 219.921 242.708 219.723 242.645L219.386 242.537C219.33 242.519 219.272 242.51 219.213 242.51H218.226C217.759 242.51 217.293 242.558 216.836 242.652L215.605 242.905L214.58 243.265C213.761 243.554 212.981 243.944 212.259 244.428L212.088 244.542C211.61 244.862 211.167 245.231 210.765 245.642C210.137 246.285 209.617 247.025 209.225 247.834L208.887 248.531C208.566 249.193 208.302 249.881 208.096 250.587L207.558 252.439C207.182 254.64 207.039 256.874 207.131 259.105L207.134 259.192L207.154 259.364C207.329 260.923 207.653 262.462 208.123 263.959L209.532 266.934C209.721 267.333 209.951 267.716 210.214 268.072C210.615 268.613 211.098 269.096 211.641 269.495L211.731 269.561C212.054 269.798 212.401 270.001 212.766 270.165L213.444 270.47C213.61 270.544 213.787 270.589 213.968 270.601L215.262 270.689C215.447 270.702 215.605 270.554 215.605 270.368C215.605 270.333 215.599 270.298 215.587 270.265L214.475 267.005L213.487 263.694L213.17 261.669C212.911 260.02 212.781 258.354 212.781 256.685V254.422C212.781 253.544 212.879 252.669 213.072 251.813L213.102 251.679C213.403 250.343 213.948 249.075 214.71 247.937C215.216 247.181 215.813 246.49 216.488 245.88L218.344 244.2L219.804 243.191C219.834 243.171 219.859 243.145 219.88 243.115Z" fill="url(#paint17_radial_397_9)"/>
<g filter="url(#filter10_d_397_9)">
<path d="M161.888 247.784C167.534 248.059 171.301 248.554 174.965 251.964C178.63 255.374 180.946 258.922 182.294 263.489C183.642 268.057 182.852 272.029 181.66 276.666C180.469 281.303 178.73 284.325 174.965 287.807C171.2 291.288 169.432 292.525 165.31 293.181C161.187 293.836 158.482 294.06 155.069 293.181C151.655 292.301 147.477 290.114 144.294 286.921C141.112 283.728 140.28 281.833 139.073 277.168C137.866 272.503 137.435 269.024 139.073 264.376C140.71 259.728 142.497 256.453 146.805 252.977C151.112 249.501 156.241 247.51 161.888 247.784Z" fill="#182941"/>
<path d="M161.888 247.784C167.534 248.059 171.301 248.554 174.965 251.964C178.63 255.374 180.946 258.922 182.294 263.489C183.642 268.057 182.852 272.029 181.66 276.666C180.469 281.303 178.73 284.325 174.965 287.807C171.2 291.288 169.432 292.525 165.31 293.181C161.187 293.836 158.482 294.06 155.069 293.181C151.655 292.301 147.477 290.114 144.294 286.921C141.112 283.728 140.28 281.833 139.073 277.168C137.866 272.503 137.435 269.024 139.073 264.376C140.71 259.728 142.497 256.453 146.805 252.977C151.112 249.501 156.241 247.51 161.888 247.784Z" stroke="#8498A5" stroke-width="2"/>
</g>
<g filter="url(#filter11_ddd_397_9)">
<path d="M164.817 256.842C164.684 256.507 164.361 256.287 164 256.287C163.77 256.287 163.548 256.378 163.384 256.54L149.872 269.883C149.753 270.001 149.664 270.146 149.614 270.306C149.434 270.877 149.776 271.48 150.358 271.618L150.921 271.752L156.454 272.522C156.504 272.529 156.552 272.541 156.599 272.559C156.939 272.688 157.111 273.067 156.985 273.408L153.577 282.644C153.539 282.747 153.52 282.855 153.52 282.965C153.52 283.689 154.313 284.134 154.931 283.757L155.308 283.527C155.392 283.475 155.469 283.413 155.538 283.342L168.163 270.335C168.332 270.16 168.427 269.927 168.427 269.684C168.427 269.428 168.322 269.183 168.136 269.007L168.05 268.925C167.851 268.736 167.594 268.62 167.322 268.596L161.931 268.119C161.885 268.115 161.84 268.108 161.795 268.097C161.246 267.967 160.931 267.39 161.118 266.857L161.179 266.684L164.851 257.71C164.951 257.464 164.953 257.188 164.855 256.94L164.817 256.842Z" fill="url(#paint18_radial_397_9)"/>
</g>
<path d="M220.806 240.691C220.696 240.691 218.207 241.081 217.113 242.38L216.459 243.002C215.087 244.306 213.999 245.88 213.265 247.625C212.555 249.31 212.19 251.12 212.19 252.948V255.637L212.348 257.328C212.607 260.094 213.103 262.833 213.831 265.514L214.925 269.153C216.018 272.008 217.313 274.782 218.801 277.453L221.49 282.279L225.319 288.128L227.926 291.247C228.649 292.112 229.439 292.917 230.29 293.656C231.531 294.732 232.892 295.66 234.347 296.42L234.892 296.705L236.196 297.187C236.962 297.47 237.772 297.615 238.588 297.615H238.623C239.677 297.615 240.716 297.368 241.658 296.894C242.25 296.597 242.795 296.213 243.275 295.757L244.168 294.909C245.628 293.521 246.795 291.855 247.601 290.009L247.779 289.599C248.394 288.191 248.818 286.707 249.04 285.187L249.148 284.445C249.309 283.349 249.389 282.243 249.389 281.136V279.099C249.389 275.257 248.883 271.433 247.885 267.723L245.815 262.433C244.555 259.214 242.906 256.161 240.902 253.344L239.901 251.936C238.032 249.307 235.766 246.984 233.185 245.05L231.61 243.87C230.521 243.053 229.33 242.38 228.069 241.866C226.163 241.09 224.124 240.691 222.065 240.691H220.806Z" fill="url(#paint19_linear_397_9)"/>
<path d="M127.166 233.177C127.471 232.828 127.383 232.301 126.988 232.543C124.178 234.266 121.631 236.425 119.466 238.911L118.517 240.113C116.97 242.073 115.723 244.252 114.816 246.579L114.18 248.874C113.693 250.633 113.357 252.43 113.175 254.247L112.901 256.976V258.01C112.901 259.052 112.985 260.092 113.151 261.12L113.208 261.47C113.368 262.457 113.622 263.427 113.965 264.367L114.534 265.92C114.54 265.936 114.547 265.951 114.556 265.964C114.677 266.157 114.974 266.077 114.983 265.85L115.09 263.214L115.363 259.575L115.708 257.239C116.206 253.867 117.053 250.556 118.235 247.359L119.466 244.109L121.107 241.12L124.663 236.052L127.166 233.177Z" fill="url(#paint20_radial_397_9)"/>
</g>
<defs>
<filter id="filter0_d_397_9" x="0" y="119.759" width="109.24" height="109.24" filterUnits="userSpaceOnUse" color-interpolation-filters="sRGB">
<feFlood flood-opacity="0" result="BackgroundImageFix"/>
<feColorMatrix in="SourceAlpha" type="matrix" values="0 0 0 0 0 0 0 0 0 0 0 0 0 0 0 0 0 0 127 0" result="hardAlpha"/>
<feOffset/>
<feGaussianBlur stdDeviation="15"/>
<feComposite in2="hardAlpha" operator="out"/>
<feColorMatrix type="matrix" values="0 0 0 0 0.575596 0 0 0 0 0.914274 0 0 0 0 0.828075 0 0 0 1 0"/>
<feBlend mode="normal" in2="BackgroundImageFix" result="effect1_dropShadow_397_9"/>
<feBlend mode="normal" in="SourceGraphic" in2="effect1_dropShadow_397_9" result="shape"/>
</filter>
<filter id="filter1_d_397_9" x="3" y="20" width="309.792" height="351.182" filterUnits="userSpaceOnUse" color-interpolation-filters="sRGB">
<feFlood flood-opacity="0" result="BackgroundImageFix"/>
<feColorMatrix in="SourceAlpha" type="matrix" values="0 0 0 0 0 0 0 0 0 0 0 0 0 0 0 0 0 0 127 0" result="hardAlpha"/>
<feOffset dy="4"/>
<feGaussianBlur stdDeviation="25"/>
<feComposite in2="hardAlpha" operator="out"/>
<feColorMatrix type="matrix" values="0 0 0 0 0.329412 0 0 0 0 0.741176 0 0 0 0 0.658824 0 0 0 1 0"/>
<feBlend mode="normal" in2="BackgroundImageFix" result="effect1_dropShadow_397_9"/>
<feBlend mode="normal" in="SourceGraphic" in2="effect1_dropShadow_397_9" result="shape"/>
</filter>
<filter id="filter2_d_397_9" x="61.4937" y="218.116" width="28.9609" height="31.6533" filterUnits="userSpaceOnUse" color-interpolation-filters="sRGB">
<feFlood flood-opacity="0" result="BackgroundImageFix"/>
<feColorMatrix in="SourceAlpha" type="matrix" values="0 0 0 0 0 0 0 0 0 0 0 0 0 0 0 0 0 0 127 0" result="hardAlpha"/>
<feOffset dx="2" dy="3"/>
<feGaussianBlur stdDeviation="2"/>
<feComposite in2="hardAlpha" operator="out"/>
<feColorMatrix type="matrix" values="0 0 0 0 0.741176 0 0 0 0 0.772549 0 0 0 0 0.827451 0 0 0 1 0"/>
<feBlend mode="normal" in2="BackgroundImageFix" result="effect1_dropShadow_397_9"/>
<feBlend mode="normal" in="SourceGraphic" in2="effect1_dropShadow_397_9" result="shape"/>
</filter>
<filter id="filter3_dd_397_9" x="97.0586" y="0" width="186.675" height="155.982" filterUnits="userSpaceOnUse" color-interpolation-filters="sRGB">
<feFlood flood-opacity="0" result="BackgroundImageFix"/>
<feColorMatrix in="SourceAlpha" type="matrix" values="0 0 0 0 0 0 0 0 0 0 0 0 0 0 0 0 0 0 127 0" result="hardAlpha"/>
<feOffset dy="4"/>
<feGaussianBlur stdDeviation="35"/>
<feComposite in2="hardAlpha" operator="out"/>
<feColorMatrix type="matrix" values="0 0 0 0 0.454424 0 0 0 0 0.725962 0 0 0 0 0.666717 0 0 0 1 0"/>
<feBlend mode="normal" in2="BackgroundImageFix" result="effect1_dropShadow_397_9"/>
<feColorMatrix in="SourceAlpha" type="matrix" values="0 0 0 0 0 0 0 0 0 0 0 0 0 0 0 0 0 0 127 0" result="hardAlpha"/>
<feOffset dy="4"/>
<feGaussianBlur stdDeviation="2"/>
<feComposite in2="hardAlpha" operator="out"/>
<feColorMatrix type="matrix" values="0 0 0 0 0 0 0 0 0 0 0 0 0 0 0 0 0 0 0.25 0"/>
<feBlend mode="normal" in2="effect1_dropShadow_397_9" result="effect2_dropShadow_397_9"/>
<feBlend mode="normal" in="SourceGraphic" in2="effect2_dropShadow_397_9" result="shape"/>
</filter>
<filter id="filter4_dd_397_9" x="111.72" y="21.6724" width="157.428" height="148.303" filterUnits="userSpaceOnUse" color-interpolation-filters="sRGB">
<feFlood flood-opacity="0" result="BackgroundImageFix"/>
<feColorMatrix in="SourceAlpha" type="matrix" values="0 0 0 0 0 0 0 0 0 0 0 0 0 0 0 0 0 0 127 0" result="hardAlpha"/>
<feOffset dy="4"/>
<feGaussianBlur stdDeviation="35"/>
<feComposite in2="hardAlpha" operator="out"/>
<feColorMatrix type="matrix" values="0 0 0 0 0.454424 0 0 0 0 0.725962 0 0 0 0 0.666717 0 0 0 1 0"/>
<feBlend mode="normal" in2="BackgroundImageFix" result="effect1_dropShadow_397_9"/>
<feColorMatrix in="SourceAlpha" type="matrix" values="0 0 0 0 0 0 0 0 0 0 0 0 0 0 0 0 0 0 127 0" result="hardAlpha"/>
<feOffset dy="4"/>
<feGaussianBlur stdDeviation="2"/>
<feComposite in2="hardAlpha" operator="out"/>
<feColorMatrix type="matrix" values="0 0 0 0 0 0 0 0 0 0 0 0 0 0 0 0 0 0 0.25 0"/>
<feBlend mode="normal" in2="effect1_dropShadow_397_9" result="effect2_dropShadow_397_9"/>
<feBlend mode="normal" in="SourceGraphic" in2="effect2_dropShadow_397_9" result="shape"/>
</filter>
<filter id="filter5_dd_397_9" x="104.067" y="11.1958" width="172.013" height="151.827" filterUnits="userSpaceOnUse" color-interpolation-filters="sRGB">
<feFlood flood-opacity="0" result="BackgroundImageFix"/>
<feColorMatrix in="SourceAlpha" type="matrix" values="0 0 0 0 0 0 0 0 0 0 0 0 0 0 0 0 0 0 127 0" result="hardAlpha"/>
<feOffset dy="4"/>
<feGaussianBlur stdDeviation="35"/>
<feComposite in2="hardAlpha" operator="out"/>
<feColorMatrix type="matrix" values="0 0 0 0 0.454424 0 0 0 0 0.725962 0 0 0 0 0.666717 0 0 0 1 0"/>
<feBlend mode="normal" in2="BackgroundImageFix" result="effect1_dropShadow_397_9"/>
<feColorMatrix in="SourceAlpha" type="matrix" values="0 0 0 0 0 0 0 0 0 0 0 0 0 0 0 0 0 0 127 0" result="hardAlpha"/>
<feOffset dy="4"/>
<feGaussianBlur stdDeviation="2"/>
<feComposite in2="hardAlpha" operator="out"/>
<feColorMatrix type="matrix" values="0 0 0 0 0 0 0 0 0 0 0 0 0 0 0 0 0 0 0.25 0"/>
<feBlend mode="normal" in2="effect1_dropShadow_397_9" result="effect2_dropShadow_397_9"/>
<feBlend mode="normal" in="SourceGraphic" in2="effect2_dropShadow_397_9" result="shape"/>
</filter>
<filter id="filter6_d_397_9" x="96.3193" y="128.522" width="140.932" height="104.442" filterUnits="userSpaceOnUse" color-interpolation-filters="sRGB">
<feFlood flood-opacity="0" result="BackgroundImageFix"/>
<feColorMatrix in="SourceAlpha" type="matrix" values="0 0 0 0 0 0 0 0 0 0 0 0 0 0 0 0 0 0 127 0" result="hardAlpha"/>
<feOffset dy="4"/>
<feGaussianBlur stdDeviation="2"/>
<feComposite in2="hardAlpha" operator="out"/>
<feColorMatrix type="matrix" values="0 0 0 0 0 0 0 0 0 0.0941176 0 0 0 0 0.298039 0 0 0 0.2 0"/>
<feBlend mode="normal" in2="BackgroundImageFix" result="effect1_dropShadow_397_9"/>
<feBlend mode="normal" in="SourceGraphic" in2="effect1_dropShadow_397_9" result="shape"/>
</filter>
<filter id="filter7_dd_397_9" x="53.5684" y="88.4717" width="162.065" height="170.682" filterUnits="userSpaceOnUse" color-interpolation-filters="sRGB">
<feFlood flood-opacity="0" result="BackgroundImageFix"/>
<feColorMatrix in="SourceAlpha" type="matrix" values="0 0 0 0 0 0 0 0 0 0 0 0 0 0 0 0 0 0 127 0" result="hardAlpha"/>
<feOffset dy="4"/>
<feGaussianBlur stdDeviation="35"/>
<feComposite in2="hardAlpha" operator="out"/>
<feColorMatrix type="matrix" values="0 0 0 0 0.454424 0 0 0 0 0.725962 0 0 0 0 0.666717 0 0 0 1 0"/>
<feBlend mode="normal" in2="BackgroundImageFix" result="effect1_dropShadow_397_9"/>
<feColorMatrix in="SourceAlpha" type="matrix" values="0 0 0 0 0 0 0 0 0 0 0 0 0 0 0 0 0 0 127 0" result="hardAlpha"/>
<feOffset dy="4"/>
<feGaussianBlur stdDeviation="2"/>
<feComposite in2="hardAlpha" operator="out"/>
<feColorMatrix type="matrix" values="0 0 0 0 0 0 0 0 0 0 0 0 0 0 0 0 0 0 0.25 0"/>
<feBlend mode="normal" in2="effect1_dropShadow_397_9" result="effect2_dropShadow_397_9"/>
<feBlend mode="normal" in="SourceGraphic" in2="effect2_dropShadow_397_9" result="shape"/>
</filter>
<filter id="filter8_dd_397_9" x="79.5537" y="126.707" width="164.362" height="153.413" filterUnits="userSpaceOnUse" color-interpolation-filters="sRGB">
<feFlood flood-opacity="0" result="BackgroundImageFix"/>
<feColorMatrix in="SourceAlpha" type="matrix" values="0 0 0 0 0 0 0 0 0 0 0 0 0 0 0 0 0 0 127 0" result="hardAlpha"/>
<feOffset dy="4"/>
<feGaussianBlur stdDeviation="35"/>
<feComposite in2="hardAlpha" operator="out"/>
<feColorMatrix type="matrix" values="0 0 0 0 0.454424 0 0 0 0 0.725962 0 0 0 0 0.666717 0 0 0 1 0"/>
<feBlend mode="normal" in2="BackgroundImageFix" result="effect1_dropShadow_397_9"/>
<feColorMatrix in="SourceAlpha" type="matrix" values="0 0 0 0 0 0 0 0 0 0 0 0 0 0 0 0 0 0 127 0" result="hardAlpha"/>
<feOffset dy="4"/>
<feGaussianBlur stdDeviation="2"/>
<feComposite in2="hardAlpha" operator="out"/>
<feColorMatrix type="matrix" values="0 0 0 0 0 0 0 0 0 0 0 0 0 0 0 0 0 0 0.25 0"/>
<feBlend mode="normal" in2="effect1_dropShadow_397_9" result="effect2_dropShadow_397_9"/>
<feBlend mode="normal" in="SourceGraphic" in2="effect2_dropShadow_397_9" result="shape"/>
</filter>
<filter id="filter9_dd_397_9" x="113.197" y="96.7896" width="162.065" height="170.682" filterUnits="userSpaceOnUse" color-interpolation-filters="sRGB">
<feFlood flood-opacity="0" result="BackgroundImageFix"/>
<feColorMatrix in="SourceAlpha" type="matrix" values="0 0 0 0 0 0 0 0 0 0 0 0 0 0 0 0 0 0 127 0" result="hardAlpha"/>
<feOffset dy="4"/>
<feGaussianBlur stdDeviation="35"/>
<feComposite in2="hardAlpha" operator="out"/>
<feColorMatrix type="matrix" values="0 0 0 0 0.454424 0 0 0 0 0.725962 0 0 0 0 0.666717 0 0 0 1 0"/>
<feBlend mode="normal" in2="BackgroundImageFix" result="effect1_dropShadow_397_9"/>
<feColorMatrix in="SourceAlpha" type="matrix" values="0 0 0 0 0 0 0 0 0 0 0 0 0 0 0 0 0 0 127 0" result="hardAlpha"/>
<feOffset dy="4"/>
<feGaussianBlur stdDeviation="2"/>
<feComposite in2="hardAlpha" operator="out"/>
<feColorMatrix type="matrix" values="0 0 0 0 0 0 0 0 0 0 0 0 0 0 0 0 0 0 0.25 0"/>
<feBlend mode="normal" in2="effect1_dropShadow_397_9" result="effect2_dropShadow_397_9"/>
<feBlend mode="normal" in="SourceGraphic" in2="effect2_dropShadow_397_9" result="shape"/>
</filter>
<filter id="filter10_d_397_9" x="91" y="198.759" width="147" height="148" filterUnits="userSpaceOnUse" color-interpolation-filters="sRGB">
<feFlood flood-opacity="0" result="BackgroundImageFix"/>
<feColorMatrix in="SourceAlpha" type="matrix" values="0 0 0 0 0 0 0 0 0 0 0 0 0 0 0 0 0 0 127 0" result="hardAlpha"/>
<feOffset dx="4" dy="2"/>
<feGaussianBlur stdDeviation="25"/>
<feComposite in2="hardAlpha" operator="out"/>
<feColorMatrix type="matrix" values="0 0 0 0 0.0294118 0 0 0 0 0.458824 0 0 0 0 0.631373 0 0 0 0.2 0"/>
<feBlend mode="normal" in2="BackgroundImageFix" result="effect1_dropShadow_397_9"/>
<feBlend mode="normal" in="SourceGraphic" in2="effect1_dropShadow_397_9" result="shape"/>
</filter>
<filter id="filter11_ddd_397_9" x="79.5654" y="190.287" width="158.861" height="167.607" filterUnits="userSpaceOnUse" color-interpolation-filters="sRGB">
<feFlood flood-opacity="0" result="BackgroundImageFix"/>
<feColorMatrix in="SourceAlpha" type="matrix" values="0 0 0 0 0 0 0 0 0 0 0 0 0 0 0 0 0 0 127 0" result="hardAlpha"/>
<feOffset dy="4"/>
<feGaussianBlur stdDeviation="35"/>
<feComposite in2="hardAlpha" operator="out"/>
<feColorMatrix type="matrix" values="0 0 0 0 0.454424 0 0 0 0 0.725962 0 0 0 0 0.666717 0 0 0 1 0"/>
<feBlend mode="normal" in2="BackgroundImageFix" result="effect1_dropShadow_397_9"/>
<feColorMatrix in="SourceAlpha" type="matrix" values="0 0 0 0 0 0 0 0 0 0 0 0 0 0 0 0 0 0 127 0" result="hardAlpha"/>
<feOffset dy="4"/>
<feGaussianBlur stdDeviation="2"/>
<feComposite in2="hardAlpha" operator="out"/>
<feColorMatrix type="matrix" values="0 0 0 0 0 0 0 0 0 0 0 0 0 0 0 0 0 0 0.25 0"/>
<feBlend mode="normal" in2="effect1_dropShadow_397_9" result="effect2_dropShadow_397_9"/>
<feColorMatrix in="SourceAlpha" type="matrix" values="0 0 0 0 0 0 0 0 0 0 0 0 0 0 0 0 0 0 127 0" result="hardAlpha"/>
<feOffset dy="4"/>
<feGaussianBlur stdDeviation="2.5"/>
<feComposite in2="hardAlpha" operator="out"/>
<feColorMatrix type="matrix" values="0 0 0 0 0.575596 0 0 0 0 0.914274 0 0 0 0 0.828075 0 0 0 0.4 0"/>
<feBlend mode="normal" in2="effect2_dropShadow_397_9" result="effect3_dropShadow_397_9"/>
<feBlend mode="normal" in="SourceGraphic" in2="effect3_dropShadow_397_9" result="shape"/>
</filter>
<radialGradient id="paint0_radial_397_9" cx="0" cy="0" r="1" gradientUnits="userSpaceOnUse" gradientTransform="translate(54.6201 181.492) scale(27.2644)">
<stop stop-color="#96A3AB"/>
<stop offset="0.471" stop-color="#CAD1D5" stop-opacity="0.995"/>
<stop offset="0.943" stop-color="white" stop-opacity="0.99"/>
</radialGradient>
<radialGradient id="paint1_radial_397_9" cx="0" cy="0" r="1" gradientUnits="userSpaceOnUse" gradientTransform="translate(56.0357 174.823) rotate(90) scale(21.8726 22.8443)">
<stop stop-color="#94EAD4"/>
<stop offset="0.53364" stop-color="#93E9D3"/>
<stop offset="1" stop-color="#54BDA8"/>
</radialGradient>
<linearGradient id="paint2_linear_397_9" x1="54.8632" y1="191.583" x2="54.772" y2="157.115" gradientUnits="userSpaceOnUse">
<stop stop-color="#C2D1DA"/>
<stop offset="0.221" stop-color="#CDDAE2" stop-opacity="0.995"/>
<stop offset="0.443" stop-color="#D8E4EA" stop-opacity="0.99"/>
<stop offset="0.722" stop-color="#ECF1F5"/>
<stop offset="1" stop-color="white"/>
</linearGradient>
<linearGradient id="paint3_linear_397_9" x1="86.386" y1="254.759" x2="68.6126" y2="213.029" gradientUnits="userSpaceOnUse">
<stop offset="0.0419135" stop-color="#A4B2C3"/>
<stop offset="0.780393" stop-color="#DBE1EA"/>
</linearGradient>
<radialGradient id="paint4_radial_397_9" cx="0" cy="0" r="1" gradientUnits="userSpaceOnUse" gradientTransform="translate(107.91 245.694) rotate(90) scale(13.5812 12.5137)">
<stop offset="0.377602" stop-color="#17867E"/>
<stop offset="0.990138" stop-color="#0E534E"/>
</radialGradient>
<radialGradient id="paint5_radial_397_9" cx="0" cy="0" r="1" gradientUnits="userSpaceOnUse" gradientTransform="translate(191.748 74.0113) rotate(90) scale(8.25202 24.689)">
<stop stop-color="#94EAD4"/>
<stop offset="0.53364" stop-color="#93E9D3"/>
<stop offset="1" stop-color="#54BDA8"/>
</radialGradient>
<radialGradient id="paint6_radial_397_9" cx="0" cy="0" r="1" gradientUnits="userSpaceOnUse" gradientTransform="translate(191.078 91.9949) rotate(90) scale(4.32249 9.35735)">
<stop stop-color="#94EAD4"/>
<stop offset="0.53364" stop-color="#93E9D3"/>
<stop offset="1" stop-color="#54BDA8"/>
</radialGradient>
<radialGradient id="paint7_radial_397_9" cx="0" cy="0" r="1" gradientUnits="userSpaceOnUse" gradientTransform="translate(190.957 83.1556) rotate(90) scale(5.9598 17.0592)">
<stop stop-color="#94EAD4"/>
<stop offset="0.53364" stop-color="#93E9D3"/>
<stop offset="1" stop-color="#54BDA8"/>
</radialGradient>
<linearGradient id="paint8_linear_397_9" x1="187.573" y1="97.4705" x2="187.573" y2="108.387" gradientUnits="userSpaceOnUse">
<stop offset="0.345224" stop-color="#17867E"/>
<stop offset="0.672612" stop-color="#136D66"/>
<stop offset="1" stop-color="#0E534E"/>
</linearGradient>
<radialGradient id="paint9_radial_397_9" cx="0" cy="0" r="1" gradientTransform="matrix(-37.851 -71.8499 94.788 -41.7189 162.416 176.628)" gradientUnits="userSpaceOnUse">
<stop offset="0.593819" stop-color="#DBE1EA"/>
<stop offset="0.958086" stop-color="#A4B2C3"/>
</radialGradient>
<linearGradient id="paint10_linear_397_9" x1="92.467" y1="168.96" x2="92.3948" y2="203.4" gradientUnits="userSpaceOnUse">
<stop offset="0.235577" stop-color="#17867E"/>
<stop offset="0.947115" stop-color="#3EBCB3"/>
</linearGradient>
<linearGradient id="paint11_linear_397_9" x1="253" y1="168.302" x2="253" y2="217.038" gradientUnits="userSpaceOnUse">
<stop offset="0.163462" stop-color="#17867E"/>
<stop offset="0.947115" stop-color="#3EBCB3"/>
</linearGradient>
<radialGradient id="paint12_radial_397_9" cx="0" cy="0" r="1" gradientUnits="userSpaceOnUse" gradientTransform="translate(135.229 168.5) rotate(90) scale(17.2245 11.6607)">
<stop stop-color="#94EAD4"/>
<stop offset="0.53364" stop-color="#93E9D3"/>
<stop offset="1" stop-color="#54BDA8"/>
</radialGradient>
<radialGradient id="paint13_radial_397_9" cx="0" cy="0" r="1" gradientUnits="userSpaceOnUse" gradientTransform="translate(162.51 199.415) rotate(90) scale(6.81119 12.9563)">
<stop stop-color="#94EAD4"/>
<stop offset="0.53364" stop-color="#93E9D3"/>
<stop offset="1" stop-color="#54BDA8"/>
</radialGradient>
<radialGradient id="paint14_radial_397_9" cx="0" cy="0" r="1" gradientUnits="userSpaceOnUse" gradientTransform="translate(194.857 176.818) rotate(90) scale(17.2245 11.6607)">
<stop stop-color="#94EAD4"/>
<stop offset="0.53364" stop-color="#93E9D3"/>
<stop offset="1" stop-color="#54BDA8"/>
</radialGradient>
<radialGradient id="paint15_radial_397_9" cx="0" cy="0" r="1" gradientTransform="matrix(-24.7738 -48.8919 62.0394 -28.3885 159.127 275.261)" gradientUnits="userSpaceOnUse">
<stop offset="0.593819" stop-color="#DBE1EA"/>
<stop offset="0.958086" stop-color="#A4B2C3"/>
</radialGradient>
<radialGradient id="paint16_radial_397_9" cx="0" cy="0" r="1" gradientUnits="userSpaceOnUse" gradientTransform="translate(211.711 257.391) rotate(90) scale(18.7798 10.7358)">
<stop stop-color="#0E534E"/>
<stop offset="1" stop-color="#17867E"/>
</radialGradient>
<radialGradient id="paint17_radial_397_9" cx="0" cy="0" r="1" gradientUnits="userSpaceOnUse" gradientTransform="translate(213.558 256.611) rotate(90) scale(14.1011 6.56454)">
<stop offset="0.636299" stop-color="#17867E"/>
<stop offset="1" stop-color="#0E534E"/>
</radialGradient>
<radialGradient id="paint18_radial_397_9" cx="0" cy="0" r="1" gradientUnits="userSpaceOnUse" gradientTransform="translate(159.357 270.564) rotate(90) scale(14.2773 10.0771)">
<stop stop-color="#94EAD4"/>
<stop offset="0.53364" stop-color="#93E9D3"/>
<stop offset="1" stop-color="#54BDA8"/>
</radialGradient>
<linearGradient id="paint19_linear_397_9" x1="230.789" y1="240.691" x2="230.789" y2="297.615" gradientUnits="userSpaceOnUse">
<stop stop-color="#DBE1EA"/>
<stop offset="0.800814" stop-color="#CDD5E0"/>
<stop offset="1" stop-color="#A4B2C3"/>
</linearGradient>
<radialGradient id="paint20_radial_397_9" cx="0" cy="0" r="1" gradientTransform="matrix(1.09409 14.4657 -7.41083 0.506174 119.329 252.127)" gradientUnits="userSpaceOnUse">
<stop offset="0.529545" stop-color="#17867E"/>
<stop offset="0.985497" stop-color="#0E534E"/>
</radialGradient>
</defs>
</svg>
